<svg viewBox="0 0 108 40" xmlns="http://www.w3.org/2000/svg" fill-rule="evenodd" clip-rule="evenodd" stroke-linejoin="round" stroke-miterlimit="2"><path d="M2.14 18.91C2.14 8.83 10.04.6 20 .08V0a20 20 0 0 0 0 40v-2.26A18.86 18.86 0 0 1 2.14 18.91" fill="#ffffff" fill-rule="nonzero"/><path d="M22 17.82c-.19-1.2-1.34-2.11-2.64-2.11-2.38 0-3.27 2.02-3.27 4.13 0 2.01.9 4.04 3.27 4.04 1.62 0 2.53-1.1 2.74-2.7h2.56c-.27 3.02-2.33 4.92-5.3 4.92-3.7 0-5.92-2.78-5.92-6.26 0-3.57 2.21-6.36 5.92-6.36 2.64 0 4.88 1.55 5.2 4.34H22zM25.27 24.01l4.54-5.11h-4.2v-1.8h7.35v1.8L28.42 24h4.86v1.8h-8.01v-1.8zM36.16 22.04c.07 1.53.8 2.2 2.15 2.2.96 0 1.73-.58 1.89-1.12h2.1c-.67 2.07-2.1 2.93-4.08 2.93-2.75 0-4.45-1.89-4.45-4.59 0-2.61 1.8-4.6 4.45-4.6 2.97 0 4.42 2.5 4.24 5.18h-6.3zm3.9-1.52c-.22-1.22-.74-1.86-1.9-1.86-1.56 0-1.95 1.18-2 1.86h3.9zM49.57 20.16c-.15-1-.74-1.5-1.77-1.5-1.54 0-2.04 1.55-2.04 2.84 0 1.26.48 2.75 1.99 2.75 1.13 0 1.75-.7 1.9-1.77h2.32c-.33 2.3-1.9 3.57-4.2 3.57-2.64 0-4.41-1.85-4.41-4.47 0-2.71 1.62-4.72 4.45-4.72 2.06 0 3.97 1.08 4.1 3.3h-2.34zM53.17 13.77h2.4v4.54h.05c.6-1 1.65-1.45 2.54-1.45 2.55 0 3.2 1.43 3.2 3.6v5.36h-2.4v-4.93c0-1.44-.4-2.14-1.54-2.14-1.3 0-1.86.72-1.86 2.5v4.57h-2.4V13.77zM71.94 24.45a4.05 4.05 0 0 1-3.31 1.65c-3.71 0-5.92-2.78-5.92-6.26 0-3.57 2.2-6.36 5.92-6.36 2.46 0 4.8 1.5 5.08 4.25h-2.53a2.46 2.46 0 0 0-2.55-2.02c-2.38 0-3.27 2.02-3.27 4.13 0 2.01.89 4.04 3.27 4.04 1.74 0 2.72-.91 2.87-2.6h-2.67V19.3h5.06v6.52h-1.68l-.27-1.37z" fill="#ffffff" fill-rule="nonzero"/><path fill="#ffffff" d="M75.72 13.77h2.4v12.05h-2.4z"/><path d="M83.98 16.86c2.76 0 4.53 1.82 4.53 4.6 0 2.77-1.77 4.6-4.53 4.6-2.73 0-4.5-1.83-4.5-4.6 0-2.78 1.77-4.6 4.5-4.6m0 7.39c1.64 0 2.13-1.39 2.13-2.79 0-1.4-.49-2.8-2.13-2.8-1.61 0-2.1 1.4-2.1 2.8s.49 2.79 2.1 2.79M89.85 13.77h2.4v4.38h.03c.59-.89 1.67-1.3 2.75-1.3 1.74 0 3.6 1.4 3.6 4.6 0 3.19-1.86 4.6-3.6 4.6-1.29 0-2.35-.39-2.87-1.35h-.04v1.12h-2.27V13.77zm4.35 4.9c-1.42 0-2.04 1.3-2.04 2.8 0 1.44.62 2.78 2.04 2.78s2.04-1.34 2.04-2.79c0-1.48-.62-2.8-2.04-2.8M101.95 22.04c.07 1.53.8 2.2 2.15 2.2.96 0 1.74-.58 1.89-1.12h2.1c-.67 2.07-2.1 2.93-4.08 2.93-2.75 0-4.45-1.89-4.45-4.59 0-2.61 1.8-4.6 4.45-4.6 2.97 0 4.42 2.5 4.24 5.18h-6.3zm3.9-1.52c-.22-1.22-.74-1.86-1.9-1.86-1.56 0-1.94 1.18-2 1.86h3.9z" fill="#ffffff" fill-rule="nonzero"/></svg>