<svg id="ae203742-c384-4b7c-bd8a-56b5321cc819" data-name="Vrstva 1" xmlns="http://www.w3.org/2000/svg" viewBox="0 0 105.15 72.15"><defs><style>.b27558c5-553a-47a5-b012-d0ae296d289e,.e0275be7-a6f9-4f74-8c6d-666003121bfe{fill:#ffffff}</style></defs><path class="e0275be7-a6f9-4f74-8c6d-666003121bfe" d="M16.51 46a6.88 6.88 0 116.87 6.88A6.88 6.88 0 0116.51 46zM24.76 65.28a6.88 6.88 0 116.88 6.87 6.88 6.88 0 01-6.88-6.87zM0 7.5a6.88 6.88 0 116.88 6.88A6.87 6.87 0 010 7.5zM8.25 26.76a6.88 6.88 0 116.88 6.88 6.88 6.88 0 01-6.88-6.88z"/><path class="b27558c5-553a-47a5-b012-d0ae296d289e" d="M32.35 22.73v4.6a1.93 1.93 0 103.85 0v-4.6h2v4.45A3.68 3.68 0 0134.27 31a3.67 3.67 0 01-3.93-3.85v-4.42zM40 22.73h2v1.07a3.09 3.09 0 012.57-1.23 3.17 3.17 0 013.33 3.33v5h-2v-4.75a1.93 1.93 0 00-3.85 0v4.7H40zM50.72 19.21a1.19 1.19 0 11-1.18 1.19 1.17 1.17 0 011.18-1.19zm-1 3.52h2v8.14h-2zM52.74 22.73H55l2.28 6 2.28-6h2.14l-3.36 8.14h-2.23zM66.33 22.57a4.14 4.14 0 014.24 4.83h-6.46a2.24 2.24 0 002.22 2 2 2 0 001.91-1.19h2.13A4.06 4.06 0 0166.31 31a4.23 4.23 0 110-8.46zM68.5 26a2.21 2.21 0 00-4.34 0zM72.19 22.73h2v1.08A2.75 2.75 0 0177 22.63v1.89c-1.65-.3-2.83.45-2.83 1.81v4.54h-2zM77.8 29.28l4.28-4.86H77.8v-1.69h6.92v1.57l-4.27 4.87h4.27v1.7H77.8zM87.22 19.21A1.19 1.19 0 1186 20.4a1.17 1.17 0 011.22-1.19zm-1 3.52h2v8.14h-2zM91 20.49h2v2.24h2.51v1.65H93v3.42c0 1.2.71 1.83 2.51 1.32v1.69c-3.2.75-4.52-.74-4.52-3v-3.43h-1.42v-1.65H91zM100.3 26.08a12.29 12.29 0 011.81.17v-.57a1.45 1.45 0 00-1.62-1.52c-1 0-1.59.45-1.65 1.29h-2c.08-1.64 1.29-2.88 3.65-2.88s3.64 1.19 3.64 3.27v5h-2v-1.12A3.57 3.57 0 0199.27 31c-1.53 0-2.71-.8-2.71-2.35s1.31-2.57 3.74-2.57zm-.45 3.44a2.25 2.25 0 002.26-1.87 9.91 9.91 0 00-1.67-.16c-1.33 0-1.85.42-1.85 1.07s.49.96 1.26.96zM37.81 42h2.26l2.28 6 2.28-6h2.14l-3.37 8.13h-2.23zM52.19 39.12h5.66a3 3 0 013.21 3 2.86 2.86 0 01-1.27 2.41 2.81 2.81 0 011.58 2.59 3 3 0 01-3.2 3h-6zm5.21 4.59a1.34 1.34 0 001.44-1.38 1.36 1.36 0 00-1.44-1.4h-3.08v2.78zm.31 4.61a1.4 1.4 0 100-2.8h-3.39v2.8zM62.79 42h2v1.09a2.75 2.75 0 012.83-1.18v1.89c-1.65-.3-2.83.45-2.83 1.8v4.55h-2zM69 42h2v1.07a3.11 3.11 0 012.58-1.22 3.17 3.17 0 013.28 3.33v5h-2v-4.77a1.93 1.93 0 00-3.85 0v4.7H69zM82.65 41.83a4.13 4.13 0 014.24 4.82h-6.46a2.24 2.24 0 002.22 2 2 2 0 001.91-1.19h2.13a4.06 4.06 0 01-4.06 2.79 4.23 4.23 0 110-8.45zm-2.87-3.54h1.75l1.12 1.41 1.11-1.41h1.72L83.76 41h-2.25zm5 7a2.26 2.26 0 00-2.17-1.81 2.23 2.23 0 00-2.17 1.81zM22.91.63H25l3.76 5.27L32.45.63h2v11h-2.2V4.32l-3.54 5.06-3.6-5v7.26h-2.2zM40.37 3.33a4.14 4.14 0 014.25 4.83h-6.46a2.24 2.24 0 002.21 2A2 2 0 0042.29 9h2.12a4.06 4.06 0 01-4 2.8 4.12 4.12 0 01-4.29-4.23 4.13 4.13 0 014.25-4.24zm2.17 3.41a2.21 2.21 0 00-4.34 0zM46.24 3.49h2v1.07a3.12 3.12 0 012.58-1.23 3.18 3.18 0 013.28 3.34v5h-2V6.92a1.93 1.93 0 00-3.85 0v4.7h-2zM62.18 10.41a3.54 3.54 0 01-2.83 1.38c-2.15 0-3.74-1.79-3.74-4.23s1.59-4.23 3.82-4.23a3.37 3.37 0 012.75 1.32V0h2v11.63h-2zm-2.18-.3a2.34 2.34 0 002.23-2.55 2.25 2.25 0 10-4.46 0A2.34 2.34 0 0060 10.11zM70.07 3.33a4.15 4.15 0 014.25 4.83h-6.46a2.24 2.24 0 002.21 2A2 2 0 0072 9h2.12a4.06 4.06 0 01-4 2.8 4.12 4.12 0 01-4.29-4.23 4.13 4.13 0 014.24-4.24zm2.17 3.41a2.21 2.21 0 00-4.34 0zM75.94 0h2v11.63h-2zM83.86 3.33a4.14 4.14 0 014.34 4.23 4.34 4.34 0 01-8.68 0 4.15 4.15 0 014.34-4.23zm0 6.78a2.34 2.34 0 002.23-2.55 2.25 2.25 0 10-4.46 0 2.34 2.34 0 002.23 2.55zM88.52 3.49h2.26l2.28 6 2.28-6h2.14l-3.37 8.14h-2.23zM101.33 6.84a12.29 12.29 0 011.81.17v-.57a1.46 1.46 0 00-1.62-1.52c-1 0-1.59.46-1.65 1.29h-2c.08-1.64 1.29-2.88 3.65-2.88s3.65 1.2 3.65 3.27v5h-2v-1.11a3.62 3.62 0 01-2.85 1.3c-1.52 0-2.7-.8-2.7-2.34s1.27-2.61 3.71-2.61zm-.46 3.44a2.26 2.26 0 002.27-1.87 11.07 11.07 0 00-1.67-.16c-1.34 0-1.85.43-1.85 1.07s.48.96 1.25.96z"/></svg>